HIERARCHY
ROOT hip
{
	OFFSET 0.000000 0.000000 0.000000 
	CHANNELS 6 Xposition Yposition Zposition Xrotation Zrotation Yrotation
	JOINT abdomen
	{
		OFFSET 0.000000 3.402643 0.000000 
		CHANNELS 3 Xrotation Zrotation Yrotation
		JOINT chest
		{
			OFFSET 0.000000 8.438565 -0.680529 
			CHANNELS 3 Xrotation Zrotation Yrotation
			JOINT neck
			{
				OFFSET 0.000000 10.207942 -0.272212 
				CHANNELS 3 Xrotation Zrotation Yrotation
				JOINT head
				{
					OFFSET 0.000000 3.130431 0.000000 
					CHANNELS 3 Xrotation Zrotation Yrotation
					End Site
					{
						OFFSET 0.000000 3.130435 0.000000 
					}
				}
			}
			JOINT lCollar
			{
				OFFSET 3.470700 6.669187 -0.816635 
				CHANNELS 3 Yrotation Zrotation Xrotation
				JOINT lShldr
				{
					OFFSET 3.198488 0.000000 0.000000 
					CHANNELS 3 Zrotation Yrotation Xrotation
					JOINT lForeArm
					{
						OFFSET 10.139888 0.000000 0.000000 
						CHANNELS 3 Yrotation Zrotation Xrotation
						JOINT lHand
						{
							OFFSET 8.370511 0.000000 0.000000 
							CHANNELS 3 Zrotation Yrotation Xrotation
							End Site
							{
								OFFSET 4.083176 0.000000 0.000000 
							}
						}
					}
				}
			}
			JOINT rCollar
			{
				OFFSET -3.470700 6.669187 -0.816635 
				CHANNELS 3 Yrotation Zrotation Xrotation
				JOINT rShldr
				{
					OFFSET -3.198488 0.000000 0.000000 
					CHANNELS 3 Zrotation Yrotation Xrotation
					JOINT rForeArm
					{
						OFFSET -10.139888 0.000000 0.000000 
						CHANNELS 3 Yrotation Zrotation Xrotation
						JOINT rHand
						{
							OFFSET -8.370511 0.000000 0.000000 
							CHANNELS 3 Zrotation Yrotation Xrotation
							End Site
							{
								OFFSET -4.083176 0.000000 0.000000 
							}
						}
					}
				}
			}
		}
	}
	JOINT lThigh
	{
		OFFSET 5.308129 -1.633274 1.361059 
		CHANNELS 3 Xrotation Zrotation Yrotation
		JOINT lShin
		{
			OFFSET -2.041588 -20.007561 0.000000 
			CHANNELS 3 Xrotation Zrotation Yrotation
			JOINT lFoot
			{
				OFFSET 0.000000 -19.190928 -1.224953 
				CHANNELS 3 Xrotation Yrotation Zrotation
				End Site
				{
					OFFSET 0.000000 -2.449906 4.627600 
				}
			}
		}
	}
	JOINT rThigh
	{
		OFFSET -5.308129 -1.633274 1.361059 
		CHANNELS 3 Xrotation Zrotation Yrotation
		JOINT rShin
		{
			OFFSET 2.041588 -20.007561 0.000000 
			CHANNELS 3 Xrotation Zrotation Yrotation
			JOINT rFoot
			{
				OFFSET 0.000000 -19.190928 -1.224953 
				CHANNELS 3 Xrotation Yrotation Zrotation
				End Site
				{
					OFFSET 0.000000 -2.449906 4.627600 
				}
			}
		}
	}
}
MOTION
Frames: 6
Frame Time: 0.011111
1.571216 50.799248 117.668678 152.410873 -179.981201 -2.249103 -9.391616 -6.241858 1.896269 -20.838434 2.528713 1.866710 -21.582117 -2.117494 0.088338 42.424171 6.599166 -2.628685 -5.788594 -15.737329 -1.465587 -56.302559 -10.615920 -5.458507 -48.287300 7.281616 7.466584 8.524705 12.647240 -49.388073 7.611086 14.174596 -1.900835 55.333324 6.739997 20.096788 38.876278 -4.336287 4.005263 -8.534408 -12.637552 39.603374 -43.186424 -2.705633 4.013587 42.961586 -4.426412 -6.449332 -51.814758 2.622437 6.962857 -22.642372 -4.421212 -24.344418 59.653259 2.782000 8.082460 8.749396 -31.813536 8.839335 
1.578898 50.806614 117.718925 152.340805 179.941559 -2.180725 -9.431155 -6.155279 1.751090 -20.829046 2.624511 1.824445 -21.757589 -2.133122 0.187367 42.756229 6.458854 -2.520170 -5.788594 -15.737329 -1.465587 -56.183434 -10.839937 -5.182698 -48.204731 7.263951 7.437591 8.524705 12.647240 -49.632210 7.611086 14.174596 -1.900835 55.124489 6.941154 19.767092 38.453770 -4.183220 3.868261 -8.534408 -12.637552 38.763531 -43.437485 -2.695747 3.788198 42.972179 -4.416736 -6.446612 -51.856834 2.795765 7.149786 -22.856041 -4.371494 -24.363911 59.760674 2.772319 8.095405 5.075657 -30.533596 6.919093 
1.593300 50.815575 117.775589 152.220749 179.915955 -1.998028 -9.374427 -6.172417 1.491769 -20.927216 2.732649 1.757214 -22.137260 -2.088574 0.284150 43.282135 6.259123 -2.401628 -5.788594 -15.737329 -1.465587 -56.061409 -11.093126 -5.074837 -47.996967 7.209476 7.352164 8.524705 12.647240 -49.847061 7.611086 14.174596 -1.900835 54.921516 7.015192 19.733540 38.252239 -4.101134 3.799026 -8.534408 -12.637552 38.148293 -43.672916 -2.754100 3.775192 42.992279 -4.406791 -6.454311 -51.635071 3.132630 7.361392 -23.139791 -4.449836 -24.503843 59.867859 2.744345 8.117564 5.574850 -30.628860 7.124387 
1.600022 50.813335 117.809509 152.229004 179.921967 -1.884316 -9.346476 -6.180767 1.351274 -20.956829 2.800294 1.714073 -22.205057 -2.078643 0.336415 43.538403 6.058758 -2.423838 -5.788594 -15.737329 -1.465587 -55.912891 -11.127907 -4.577492 -48.007576 7.214331 7.360897 8.524705 12.647240 -49.710339 7.611086 14.174596 -1.900835 54.742271 6.974085 19.613718 37.971100 -3.993710 3.697958 -8.534408 -12.637552 37.503761 -43.661060 -2.812774 3.783173 42.971523 -4.416584 -6.465897 -51.523602 3.104955 7.272627 -23.268961 -4.578306 -24.644249 59.975685 2.744283 8.116480 6.000223 -30.770676 7.361155 
1.599702 50.819096 117.821350 152.317459 179.954498 -1.909711 -9.473883 -6.163115 1.403642 -20.976376 2.811813 1.742001 -21.784094 -2.038745 0.319458 43.515648 5.838367 -2.585851 -5.788594 -15.737329 -1.465587 -55.709114 -10.843428 -3.717451 -48.173603 7.256637 7.427038 8.524705 12.647240 -49.251354 7.611086 14.174596 -1.900835 54.679546 6.691191 19.362965 37.760513 -3.918643 3.634543 -8.534408 -12.637552 36.722511 -43.556503 -2.871189 3.705511 42.971859 -4.416590 -6.456230 -51.622746 3.054223 7.290400 -23.294621 -4.731685 -24.720493 60.112305 2.724760 8.135918 10.574316 -32.609318 9.888953 
1.602902 50.827103 117.838310 152.339157 -179.974030 -2.026246 -9.640665 -6.194962 1.517713 -21.015369 2.805238 1.789270 -21.704309 -1.994259 0.402811 43.927608 5.793167 -2.532170 -5.788594 -15.737329 -1.465587 -55.488846 -10.626116 -2.934964 -48.226170 7.272954 7.445378 8.524705 12.647240 -48.792370 7.611086 14.174596 -1.900835 54.650078 6.372934 19.236467 37.780437 -3.924885 3.642424 -8.534408 -12.637552 36.097511 -43.578026 -2.920075 3.656823 42.971859 -4.416587 -6.456228 -51.759109 3.226974 7.521964 -23.480204 -4.829871 -24.565538 60.249714 2.713660 8.131102 6.577020 -31.030964 7.687314 
